<svg width="31" height="29" viewBox="0 0 31 29" fill="none" xmlns="http://www.w3.org/2000/svg">
<path d="M9.66666 6.75008V3.83342C9.66666 3.03133 9.95249 2.34446 10.5242 1.77279C11.0958 1.20113 11.7822 0.915778 12.5833 0.916751H18.4167C19.2187 0.916751 19.9056 1.20258 20.4773 1.77425C21.049 2.34592 21.3343 3.03231 21.3333 3.83342V6.75008H27.1667C27.9687 6.75008 28.6556 7.03592 29.2273 7.60758C29.799 8.17925 30.0843 8.86564 30.0833 9.66675V25.7084C30.0833 26.5105 29.7975 27.1974 29.2258 27.769C28.6542 28.3407 27.9678 28.6261 27.1667 28.6251H3.83333C3.03124 28.6251 2.34437 28.3393 1.7727 27.7676C1.20103 27.1959 0.915687 26.5095 0.916659 25.7084V9.66675C0.916659 8.86467 1.20249 8.17779 1.77416 7.60613C2.34583 7.03446 3.03221 6.74911 3.83333 6.75008H9.66666ZM12.5833 6.75008H18.4167V3.83342H12.5833V6.75008ZM27.1667 19.8751H19.875V21.3334C19.875 21.7466 19.735 22.0932 19.455 22.3732C19.175 22.6532 18.8289 22.7927 18.4167 22.7918H12.5833C12.1701 22.7918 11.8235 22.6518 11.5435 22.3718C11.2635 22.0918 11.124 21.7456 11.125 21.3334V19.8751H3.83333V25.7084H27.1667V19.8751ZM14.0417 19.8751H16.9583V16.9584H14.0417V19.8751ZM3.83333 16.9584H11.125V15.5001C11.125 15.0869 11.265 14.7403 11.545 14.4603C11.825 14.1803 12.1711 14.0408 12.5833 14.0418H18.4167C18.8299 14.0418 19.1765 14.1818 19.4564 14.4618C19.7365 14.7418 19.876 15.0879 19.875 15.5001V16.9584H27.1667V9.66675H3.83333V16.9584Z" fill="black"/>
</svg>
