<svg width="32" height="31" viewBox="0 0 32 31" fill="none" xmlns="http://www.w3.org/2000/svg">
<path d="M30.1604 10.702C31.9833 8.87911 31.1521 6.74995 30.1604 5.71453L25.7854 1.33953C23.9479 -0.483386 21.8333 0.347864 20.7979 1.33953L18.3188 3.83328H14.5417C11.7708 3.83328 10.1667 5.29161 9.35001 6.9687L2.87501 13.4437V19.277L1.83959 20.2979C0.0166751 22.1354 0.847925 24.2499 1.83959 25.2854L6.21459 29.6604C7.00209 30.4479 7.84793 30.7395 8.65001 30.7395C9.68542 30.7395 10.6333 30.2291 11.2021 29.6604L15.1396 25.7083H20.375C22.8542 25.7083 24.1083 24.1624 24.5604 22.6458C26.2083 22.2083 27.1125 20.9541 27.4771 19.7291C29.7375 19.1458 30.5833 17.002 30.5833 15.4999V11.1249H29.7229L30.1604 10.702ZM27.6667 15.4999C27.6667 16.1562 27.3896 16.9583 26.2083 16.9583H24.75V18.4166C24.75 19.0729 24.4729 19.8749 23.2917 19.8749H21.8333V21.3333C21.8333 21.9895 21.5563 22.7916 20.375 22.7916H13.9438L9.16043 27.5749C8.70834 27.9979 8.44584 27.75 8.28543 27.5895L3.92501 23.2437C3.50209 22.7916 3.75001 22.5291 3.91043 22.3687L5.79168 20.4729V14.6395L8.70834 11.7229V14.0416C8.70834 15.8062 9.87501 18.4166 13.0833 18.4166C16.2917 18.4166 17.4583 15.8062 17.4583 14.0416H27.6667V15.4999ZM28.0896 8.6312L25.6104 11.1249H14.5417V14.0416C14.5417 14.6979 14.2646 15.4999 13.0833 15.4999C11.9021 15.4999 11.625 14.6979 11.625 14.0416V9.66661C11.625 8.99578 11.8729 6.74995 14.5417 6.74995H19.5146L22.8396 3.42495C23.2917 3.00203 23.5542 3.24995 23.7146 3.41036L28.075 7.7562C28.4979 8.20828 28.25 8.47078 28.0896 8.6312Z" fill="black"/>
</svg>
