<svg width="13" height="16" viewBox="0 0 13 16" fill="none" xmlns="http://www.w3.org/2000/svg">
<path d="M3.66667 9.5C3.46597 9.5 3.29763 9.428 3.16163 9.284C3.02563 9.14 2.95786 8.962 2.95833 8.75C2.95833 8.5375 3.02633 8.35925 3.16233 8.21525C3.29833 8.07125 3.46645 7.9995 3.66667 8C3.86736 8 4.03571 8.072 4.17171 8.216C4.30771 8.36 4.37547 8.538 4.375 8.75C4.375 8.9625 4.307 9.14075 4.171 9.28475C4.035 9.42875 3.86689 9.5005 3.66667 9.5ZM6.5 9.5C6.29931 9.5 6.13096 9.428 5.99496 9.284C5.85896 9.14 5.7912 8.962 5.79167 8.75C5.79167 8.5375 5.85967 8.35925 5.99567 8.21525C6.13167 8.07125 6.29978 7.9995 6.5 8C6.7007 8 6.86904 8.072 7.00504 8.216C7.14104 8.36 7.20881 8.538 7.20833 8.75C7.20833 8.9625 7.14033 9.14075 7.00433 9.28475C6.86833 9.42875 6.70022 9.5005 6.5 9.5ZM9.33333 9.5C9.13264 9.5 8.96429 9.428 8.82829 9.284C8.69229 9.14 8.62453 8.962 8.625 8.75C8.625 8.5375 8.693 8.35925 8.829 8.21525C8.965 8.07125 9.13311 7.9995 9.33333 8C9.53403 8 9.70238 8.072 9.83838 8.216C9.97438 8.36 10.0421 8.538 10.0417 8.75C10.0417 8.9625 9.97367 9.14075 9.83767 9.28475C9.70167 9.42875 9.53356 9.5005 9.33333 9.5ZM1.54167 15.5C1.15208 15.5 0.818459 15.353 0.540793 15.059C0.263126 14.765 0.124529 14.412 0.125001 14V3.5C0.125001 3.0875 0.263835 2.73425 0.541501 2.44025C0.819168 2.14625 1.15256 1.9995 1.54167 2H2.25V0.5H3.66667V2H9.33333V0.5H10.75V2H11.4583C11.8479 2 12.1815 2.147 12.4592 2.441C12.7369 2.735 12.8755 3.088 12.875 3.5V14C12.875 14.4125 12.7362 14.7658 12.4585 15.0598C12.1808 15.3538 11.8474 15.5005 11.4583 15.5H1.54167ZM1.54167 14H11.4583V6.5H1.54167V14Z" fill="white"/>
</svg>
