<svg width="31" height="30" viewBox="0 0 31 30" fill="none" xmlns="http://www.w3.org/2000/svg">
<path d="M22.25 0.375H8.75C6.66211 0.377233 4.66037 1.20764 3.184 2.684C1.70764 4.16037 0.877233 6.16211 0.875 8.25V21.75C0.877233 23.8379 1.70764 25.8396 3.184 27.316C4.66037 28.7924 6.66211 29.6228 8.75 29.625H22.25C24.3379 29.6228 26.3396 28.7924 27.816 27.316C29.2924 25.8396 30.1228 23.8379 30.125 21.75V8.25C30.1228 6.16211 29.2924 4.16037 27.816 2.684C26.3396 1.20764 24.3379 0.377233 22.25 0.375ZM15.5 21.75C14.165 21.75 12.8599 21.3541 11.7499 20.6124C10.6399 19.8707 9.7747 18.8165 9.26381 17.5831C8.75292 16.3497 8.61925 14.9925 8.8797 13.6831C9.14015 12.3738 9.78302 11.171 10.727 10.227C11.671 9.28302 12.8738 8.64015 14.1831 8.3797C15.4925 8.11925 16.8497 8.25292 18.0831 8.76381C19.3165 9.2747 20.3707 10.1399 21.1124 11.2499C21.8541 12.3599 22.25 13.665 22.25 15C22.2481 16.7896 21.5364 18.5054 20.2709 19.7709C19.0054 21.0364 17.2896 21.7481 15.5 21.75ZM23.9375 8.25C23.6037 8.25 23.2775 8.15103 23 7.96561C22.7225 7.78018 22.5062 7.51663 22.3785 7.20828C22.2507 6.89993 22.2173 6.56063 22.2824 6.23328C22.3475 5.90594 22.5083 5.60526 22.7443 5.36926C22.9803 5.13326 23.2809 4.97254 23.6083 4.90742C23.9356 4.84231 24.2749 4.87573 24.5833 5.00345C24.8916 5.13118 25.1552 5.34747 25.3406 5.62498C25.526 5.90248 25.625 6.22874 25.625 6.5625C25.625 7.01005 25.4472 7.43928 25.1307 7.75574C24.8143 8.07221 24.3851 8.25 23.9375 8.25ZM20 15C20 15.89 19.7361 16.76 19.2416 17.5001C18.7471 18.2401 18.0443 18.8169 17.2221 19.1575C16.3998 19.4981 15.495 19.5872 14.6221 19.4135C13.7492 19.2399 12.9474 18.8113 12.318 18.182C11.6887 17.5526 11.2601 16.7508 11.0865 15.8779C10.9128 15.005 11.0019 14.1002 11.3425 13.2779C11.6831 12.4557 12.2599 11.7529 12.9999 11.2584C13.74 10.7639 14.61 10.5 15.5 10.5C16.6935 10.5 17.8381 10.9741 18.682 11.818C19.5259 12.6619 20 13.8065 20 15Z" fill="black"/>
</svg>
