<svg width="13" height="16" viewBox="0 0 13 16" fill="none" xmlns="http://www.w3.org/2000/svg">
<path d="M6.49998 8C6.88956 8 7.22319 7.853 7.50085 7.559C7.77852 7.265 7.91712 6.912 7.91665 6.5C7.91665 6.0875 7.77781 5.73425 7.50015 5.44025C7.22248 5.14625 6.88909 4.9995 6.49998 5C6.1104 5 5.77677 5.147 5.4991 5.441C5.22144 5.735 5.08284 6.088 5.08331 6.5C5.08331 6.9125 5.22215 7.26575 5.49981 7.55975C5.77748 7.85375 6.11087 8.0005 6.49998 8ZM6.49998 13.5125C7.94026 12.1125 9.00866 10.8405 9.70519 9.6965C10.4017 8.5525 10.75 7.537 10.75 6.65C10.75 5.2875 10.3396 4.172 9.5189 3.3035C8.69817 2.435 7.69187 2.0005 6.49998 2C5.30762 2 4.30108 2.4345 3.48035 3.3035C2.65963 4.1725 2.24951 5.288 2.24998 6.65C2.24998 7.5375 2.59824 8.55325 3.29477 9.69725C3.9913 10.8412 5.0597 12.113 6.49998 13.5125ZM6.49998 15.5C4.59929 13.7875 3.17979 12.197 2.24148 10.7285C1.30317 9.26 0.833785 7.9005 0.833313 6.65C0.833313 4.775 1.40305 3.28125 2.54252 2.16875C3.68199 1.05625 5.00115 0.5 6.49998 0.5C7.99928 0.5 9.31867 1.05625 10.4581 2.16875C11.5976 3.28125 12.1671 4.775 12.1666 6.65C12.1666 7.9 11.6973 9.2595 10.7585 10.7285C9.8197 12.1975 8.4002 13.788 6.49998 15.5Z" fill="white"/>
</svg>
