<svg width="15" height="16" viewBox="0 0 15 16" fill="none" xmlns="http://www.w3.org/2000/svg">
<path d="M7.49294 0.5C3.58294 0.5 0.416687 3.86 0.416687 8C0.416687 12.14 3.58294 15.5 7.49294 15.5C11.41 15.5 14.5834 12.14 14.5834 8C14.5834 3.86 11.41 0.5 7.49294 0.5ZM7.50002 14C4.36919 14 1.83335 11.315 1.83335 8C1.83335 4.685 4.36919 2 7.50002 2C10.6309 2 13.1667 4.685 13.1667 8C13.1667 11.315 10.6309 14 7.50002 14ZM7.34419 4.25H7.30169C7.01835 4.25 6.79169 4.49 6.79169 4.79V8.33C6.79169 8.5925 6.91919 8.84 7.13877 8.975L10.0784 10.8425C10.3192 10.9925 10.6309 10.9175 10.7725 10.6625C10.8081 10.6018 10.8317 10.5341 10.8421 10.4635C10.8524 10.3929 10.8493 10.3208 10.8327 10.2515C10.8162 10.1822 10.7867 10.1171 10.7459 10.0602C10.7051 10.0032 10.654 9.95557 10.5954 9.92L7.85419 8.195V4.79C7.85419 4.49 7.62752 4.25 7.34419 4.25Z" fill="white"/>
</svg>
