<svg width="25" height="28" viewBox="0 0 25 28" fill="none" xmlns="http://www.w3.org/2000/svg">
<path d="M19.4 4.73C18.3746 3.55943 17.8096 2.05615 17.81 0.5H13.175V19.1C13.1392 20.1065 12.7143 21.0599 11.9896 21.7594C11.265 22.4589 10.2972 22.8499 9.28999 22.85C7.15999 22.85 5.38999 21.11 5.38999 18.95C5.38999 16.37 7.87999 14.435 10.445 15.23V10.49C5.26999 9.8 0.73999 13.82 0.73999 18.95C0.73999 23.945 4.87999 27.5 9.27499 27.5C13.985 27.5 17.81 23.675 17.81 18.95V9.515C19.6895 10.8648 21.946 11.589 24.26 11.585V6.95C24.26 6.95 21.44 7.085 19.4 4.73Z" fill="black"/>
</svg>
