<svg width="33" height="26" viewBox="0 0 33 26" fill="none" xmlns="http://www.w3.org/2000/svg">
<path d="M31.4527 4.77625C31.3202 4.25784 31.0663 3.77835 30.712 3.37736C30.3577 2.97637 29.9131 2.66537 29.415 2.47001C24.5944 0.60813 16.9219 0.625005 16.5 0.625005C16.0781 0.625005 8.40562 0.60813 3.585 2.47001C3.08685 2.66537 2.6423 2.97637 2.28801 3.37736C1.93372 3.77835 1.67985 4.25784 1.54734 4.77625C1.18313 6.17969 0.75 8.74469 0.75 13C0.75 17.2553 1.18313 19.8203 1.54734 21.2238C1.67965 21.7424 1.93343 22.2222 2.28773 22.6234C2.64203 23.0247 3.08669 23.3359 3.585 23.5314C8.20312 25.3131 15.4312 25.375 16.4072 25.375H16.5928C17.5688 25.375 24.8011 25.3131 29.415 23.5314C29.9133 23.3359 30.358 23.0247 30.7123 22.6234C31.0666 22.2222 31.3204 21.7424 31.4527 21.2238C31.8169 19.8175 32.25 17.2553 32.25 13C32.25 8.74469 31.8169 6.17969 31.4527 4.77625ZM21.3122 13.4683L14.5622 17.9683C14.4775 18.0248 14.379 18.0573 14.2772 18.0622C14.1755 18.0671 14.0743 18.0444 13.9845 17.9963C13.8947 17.9482 13.8196 17.8766 13.7673 17.7892C13.715 17.7018 13.6874 17.6019 13.6875 17.5V8.50001C13.6874 8.39814 13.715 8.29818 13.7673 8.21078C13.8196 8.12337 13.8947 8.05181 13.9845 8.00374C14.0743 7.95566 14.1755 7.93287 14.2772 7.9378C14.379 7.94273 14.4775 7.97519 14.5622 8.03172L21.3122 12.5317C21.3893 12.5831 21.4526 12.6527 21.4964 12.7344C21.5401 12.8161 21.563 12.9073 21.563 13C21.563 13.0927 21.5401 13.1839 21.4964 13.2656C21.4526 13.3473 21.3893 13.4169 21.3122 13.4683Z" fill="black"/>
</svg>
