<svg width="78" height="52" viewBox="0 0 78 52" fill="none" xmlns="http://www.w3.org/2000/svg">
<path d="M22.471 50.1374C22.471 50.4952 22.6071 50.8429 22.859 51.0999C23.111 51.3569 23.4537 51.498 23.8165 51.498H53.5543C54.28 51.493 54.8696 50.9185 54.8948 50.1928C54.8948 50.0064 54.9502 48.1065 54.5521 45.4961H76.267C76.9927 45.491 77.5874 44.9165 77.6075 44.1908C77.6227 43.7323 77.8998 32.837 71.0714 26.583C70.5926 26.1396 69.8619 26.1093 69.3479 26.5074C69.2673 26.5679 61.3251 32.5346 53.9373 26.5125C53.4283 26.0993 52.6976 26.1144 52.2037 26.5427C52.0475 26.6788 49.8755 28.6139 47.9907 32.3431C47.5523 32.1516 47.0332 32.202 46.6402 32.5044C46.3126 32.7513 38.5771 38.5013 31.2245 32.5145C30.8667 32.2222 30.393 32.1466 29.9747 32.2776C29.0223 30.2366 27.712 28.2461 25.8928 26.578C25.414 26.1345 24.6833 26.1043 24.1693 26.5024C24.0887 26.5629 16.1465 32.5296 8.75364 26.5074C8.24466 26.0942 7.51394 26.1093 7.02511 26.5377C6.73786 26.7897 0.166432 32.6304 0.000130512 44.1354C-0.00490893 44.4932 0.136195 44.8409 0.388168 45.0979C0.64014 45.355 0.982822 45.4961 1.34566 45.4961H22.9246C22.6675 46.9222 22.4962 48.4643 22.476 50.1323L22.471 50.1374ZM53.2217 29.3446C60.2467 34.248 67.4178 30.8414 69.9879 29.2943C73.9842 33.5828 74.7502 40.0635 74.8913 42.81H54.0129C53.3325 40.0686 52.1332 36.9844 50.0216 34.369C51.1353 31.9299 52.4254 30.2467 53.2217 29.3497V29.3446ZM30.5089 35.3466C37.5339 40.245 44.705 36.8433 47.2751 35.2962C51.2714 39.5848 52.0374 46.0655 52.1785 48.812H25.2074C25.6862 41.5905 28.9971 37.06 30.5039 35.3517L30.5089 35.3466ZM2.74159 42.81C3.21529 35.5835 6.52621 31.053 8.03804 29.3446C15.063 34.248 22.2341 30.8414 24.8093 29.2943C26.1851 30.7759 27.1728 32.5145 27.8934 34.2732C26.558 35.9262 24.6984 38.7684 23.5394 42.805H2.74159V42.81Z" fill="white"/>
<path d="M3.49763 12.7246C3.49763 19.7345 9.20227 25.4341 16.2121 25.4341C19.6037 25.4341 22.7936 24.1087 25.1975 21.7049C25.5301 21.3723 25.8375 21.0195 26.1247 20.6617C27.0621 26.7494 32.3283 31.436 38.678 31.436C42.0695 31.436 45.2595 30.1107 47.6633 27.7068C49.669 25.7011 50.9087 23.1462 51.2665 20.3896C53.5897 23.4485 57.2533 25.4341 61.3857 25.4341C64.7772 25.4341 67.9672 24.1087 70.371 21.7049C72.7748 19.3011 74.1002 16.1061 74.0952 12.7145C74.0952 5.70465 68.3855 0.00504052 61.3806 0.00504052C57.9891 0.00504052 54.7941 1.33041 52.3953 3.73423C50.3896 5.73993 49.1499 8.29492 48.7921 11.0515C46.4689 7.99255 42.8053 6.00198 38.6729 6.00198C35.2814 6.00198 32.0864 7.32735 29.6826 9.73116C29.35 10.0638 29.0426 10.4165 28.7553 10.7743C27.8129 4.68164 22.5518 0 16.2021 0C12.8105 0 9.61551 1.32537 7.2117 3.72919C4.80788 6.133 3.48755 9.32801 3.48755 12.7196L3.49763 12.7246ZM54.3053 5.6341C56.2051 3.73423 58.7198 2.69106 61.3958 2.69106C66.924 2.69106 71.4243 7.19129 71.4243 12.7196C71.4243 15.3905 70.3811 17.9102 68.4812 19.81C66.5864 21.7099 64.0717 22.7531 61.3958 22.7531C55.8675 22.7531 51.3723 18.2579 51.3673 12.7296C51.3673 10.0537 52.4104 7.53397 54.3053 5.63914V5.6341ZM31.5975 11.6361C33.4924 9.7362 36.0121 8.69304 38.688 8.69304C44.2163 8.69304 48.7165 13.1933 48.7165 18.7165C48.7165 21.3924 47.6734 23.9071 45.7735 25.807C43.8787 27.7069 41.364 28.75 38.688 28.75C33.1598 28.75 28.6596 24.2548 28.6596 18.7266C28.6596 16.0506 29.7027 13.5359 31.5975 11.6361ZM16.2172 2.69106C21.7454 2.69106 26.2406 7.19129 26.2457 12.7196C26.2457 15.3905 25.2025 17.9102 23.3026 19.81C21.4078 21.7099 18.8931 22.7531 16.2172 22.7531C10.6889 22.7531 6.18869 18.2579 6.18869 12.7296C6.18869 10.0537 7.23185 7.53397 9.12668 5.63914C11.0215 3.73927 13.5412 2.6961 16.2172 2.6961V2.69106Z" fill="white"/>
</svg>
