<svg width="47" height="72" viewBox="0 0 47 72" fill="none" xmlns="http://www.w3.org/2000/svg">
<path d="M46.3419 67.6375C46.3507 67.3349 46.5349 60.1939 42.0346 56.0751C41.5915 55.6716 40.9248 55.6452 40.4467 56.0049C40.2493 56.154 35.5164 59.6587 31.0467 56.0181C30.5818 55.6365 29.9063 55.6496 29.4545 56.0444C29.3887 56.1014 28.8141 56.619 28.0903 57.5796C27.4017 56.5137 26.5771 55.5049 25.5857 54.5969C25.1427 54.1933 24.476 54.1626 23.9979 54.5267C23.6996 54.7548 16.62 60.0184 9.887 54.5355C9.42205 54.1539 8.74655 54.167 8.29475 54.5618C8.04035 54.7855 2.01789 60.1368 1.86437 70.6816C1.85998 71.0106 1.98719 71.3308 2.21966 71.5677C2.45214 71.8045 2.76796 71.9361 3.10132 71.9361H30.3362C31.0029 71.9317 31.5512 71.401 31.5731 70.7343C31.5731 70.629 31.595 69.9272 31.5249 68.8394H45.105C45.7717 68.8394 46.32 68.3086 46.3419 67.6375ZM4.38652 69.4578C4.82515 62.852 7.84735 58.7113 9.22905 57.141C15.6638 61.6238 22.2214 58.5139 24.5857 57.0927C28.2351 61.0141 28.9413 66.9357 29.0729 69.4535H4.38652V69.4578ZM31.2485 66.3611C30.959 64.4925 30.4151 62.2335 29.415 60.0228C29.7747 59.435 30.1256 58.9569 30.4107 58.6192C34.3891 61.1983 38.6307 59.9965 41.0257 58.5929C43.1443 61.0536 43.6882 64.5495 43.8198 66.3655H31.2441L31.2485 66.3611Z" fill="white"/>
<path d="M33.5162 23.8705H23.8618V26.9102C23.8618 28.4279 25.0988 29.6649 26.6164 29.6649H35.2005L37.6393 32.4721C37.8192 32.6783 38.078 32.7923 38.3412 32.7923C38.4596 32.7923 38.5824 32.7704 38.7008 32.7222C39.0737 32.5686 39.2974 32.1914 39.2667 31.7922L39.1 29.6649H43.5127C45.0303 29.6649 46.2673 28.4279 46.2673 26.9102V16.0277C46.2673 14.51 45.0303 13.2731 43.5127 13.2731H37.5034V19.8877C37.5034 22.0853 35.7137 23.8749 33.5162 23.8749V23.8705ZM37.7227 19.9403V15.1285H43.5083C44.0039 15.1285 44.4075 15.5321 44.4075 16.0277V26.9102C44.4075 27.4059 44.0039 27.8094 43.5083 27.8094H38.0911C37.8323 27.8094 37.5867 27.9191 37.4112 28.1077C37.2358 28.3007 37.1481 28.5551 37.1656 28.8095L37.1919 29.1297L36.319 28.1297C36.1436 27.9279 35.8892 27.8094 35.6172 27.8094H26.6077C26.112 27.8094 25.7085 27.4059 25.7085 26.9102V24.0109H33.639C35.8848 24.0109 37.7095 22.1861 37.7095 19.9403H37.7227Z" fill="white"/>
<path d="M0 19.8877C0 22.0853 1.78963 23.8749 3.98719 23.8749H14.703L14.4004 27.7173C14.3653 28.1779 14.6285 28.6078 15.0539 28.7876C15.1899 28.8446 15.3303 28.871 15.4663 28.871C15.7689 28.871 16.0628 28.7394 16.2734 28.5025L20.2956 23.8749H33.5161C35.7137 23.8749 37.5033 22.0853 37.5033 19.8877V3.98719C37.5033 1.78963 35.7137 0 33.5161 0H3.98719C1.78963 0 0 1.78963 0 3.98719V19.8877ZM2.13615 3.98719C2.13615 2.96956 2.96517 2.13615 3.9828 2.13615H33.5117C34.5293 2.13615 35.3584 2.96517 35.3584 3.98719V19.8877C35.3584 20.9053 34.5293 21.7344 33.5117 21.7344H19.8C19.4885 21.7344 19.1947 21.8703 18.9929 22.1028L16.7778 24.6513L16.9181 22.888C16.9401 22.5897 16.8392 22.2958 16.6374 22.0809C16.4356 21.8616 16.1505 21.7387 15.8523 21.7387H3.98719C2.96956 21.7387 2.14054 20.9097 2.14054 19.8921V3.99158L2.13615 3.98719Z" fill="white"/>
<path d="M35.5866 55.9917C37.8587 55.9917 39.9949 55.1057 41.6047 53.4959C43.2145 51.8861 44.1005 49.7456 44.1005 47.4735C44.1005 42.7757 40.2756 38.9596 35.5822 38.9596C33.3101 38.9596 31.1696 39.8456 29.5598 41.4598C29.0729 41.9467 28.6606 42.4862 28.3097 43.0608C28.3491 42.6792 28.3667 42.2932 28.3667 41.9028C28.3667 35.4812 23.1338 30.2527 16.7121 30.2527C13.6022 30.2527 10.6765 31.4677 8.47458 33.674C6.27264 35.876 5.05762 38.8016 5.05762 41.9116C5.05762 48.3332 10.2861 53.5617 16.7121 53.5617C19.8221 53.5617 22.7434 52.3467 24.9453 50.1447C25.8138 49.2762 26.5244 48.2893 27.0727 47.2278C27.0727 47.3155 27.0595 47.3989 27.0595 47.4866C27.0595 52.18 30.8844 56.0005 35.5778 56.0005L35.5866 55.9917ZM31.3143 43.2055C32.4591 42.0607 33.9724 41.4335 35.5866 41.4335C38.9158 41.4335 41.6266 44.1442 41.6266 47.4735C41.6266 49.0833 40.9994 50.6009 39.8545 51.7458C38.7141 52.8906 37.1964 53.5178 35.5866 53.5178C32.2574 53.5178 29.5466 50.8071 29.5466 47.4778C29.5466 45.8681 30.1739 44.3504 31.3187 43.2055H31.3143ZM23.2039 48.3858C21.4713 50.1228 19.1685 51.079 16.7209 51.079C11.6635 51.079 7.54468 46.9646 7.54468 41.9072C7.54468 39.4596 8.5009 37.1524 10.2335 35.4198C11.9705 33.6828 14.2733 32.7266 16.7209 32.7266C21.7784 32.7266 25.8972 36.8409 25.8972 41.9028C25.8972 44.3504 24.9409 46.6532 23.2039 48.3902V48.3858Z" fill="white"/>
</svg>
