<svg width="64" height="52" viewBox="0 0 64 52" fill="none" xmlns="http://www.w3.org/2000/svg">
<path d="M63.7243 0.294858C63.5388 0.109947 63.2782 0 63.0175 0H1.00251C0.736842 0 0.481203 0.10495 0.295739 0.294858C0.110276 0.479769 0 0.739644 0 0.999519V8.69082C0 8.95569 0.105263 9.21057 0.295739 9.39548C0.481203 9.58039 0.741855 9.69034 1.00251 9.69034H1.06266V51.0005C1.06266 51.0005 1.06266 51.0305 1.06266 51.0455C1.06266 51.0954 1.06767 51.1454 1.07769 51.1954C1.08271 51.2254 1.09273 51.2504 1.10276 51.2803C1.11278 51.3153 1.12281 51.3503 1.13283 51.3803C1.14787 51.4103 1.16291 51.4403 1.18296 51.4703C1.19799 51.4952 1.20802 51.5252 1.22807 51.5502C1.25815 51.5902 1.28822 51.6302 1.32331 51.6652C1.33333 51.6752 1.34336 51.6901 1.35338 51.7001C1.3985 51.7451 1.44862 51.7901 1.50376 51.8251C1.52882 51.8401 1.55388 51.8501 1.57393 51.8651C1.60902 51.8851 1.6391 51.905 1.67419 51.92C1.70927 51.935 1.74436 51.945 1.77945 51.955C1.80451 51.965 1.82957 51.975 1.85965 51.98C1.92481 51.995 1.98997 52 2.05514 52C2.07018 52 2.08521 52 2.10025 52C2.15038 52 2.2005 51.995 2.25063 51.985C2.2807 51.98 2.31078 51.97 2.33584 51.96C2.37093 51.95 2.401 51.94 2.43609 51.93C2.47118 51.915 2.49624 51.9 2.53133 51.8801C2.55639 51.8651 2.58647 51.8551 2.61153 51.8351C2.65163 51.8051 2.69173 51.7751 2.72682 51.7401C2.73684 51.7301 2.75188 51.7201 2.7619 51.7101L13.1729 41.4251H51.1128L61.4286 51.7101C61.4737 51.7551 61.5288 51.8001 61.584 51.8351C61.609 51.8501 61.6341 51.8601 61.6591 51.8751C61.6892 51.8901 61.7193 51.91 61.7544 51.925C61.7895 51.94 61.8195 51.945 61.8546 51.955C61.8847 51.965 61.9098 51.975 61.9398 51.98C62.0702 52.005 62.2005 52.005 62.3308 51.98C62.3609 51.975 62.386 51.965 62.416 51.955C62.4511 51.945 62.4862 51.935 62.5163 51.925C62.5514 51.91 62.5815 51.8901 62.6115 51.8751C62.6366 51.8601 62.6617 51.8501 62.6867 51.8351C62.797 51.7601 62.8922 51.6702 62.9624 51.5602C62.9774 51.5352 62.9925 51.5102 63.0025 51.4852C63.0175 51.4553 63.0376 51.4253 63.0526 51.3903C63.0677 51.3553 63.0727 51.3203 63.0827 51.2853C63.0927 51.2554 63.1028 51.2304 63.1078 51.2004C63.1228 51.1354 63.1278 51.0704 63.1278 51.0055V9.68035C63.3434 9.65036 63.5489 9.55541 63.7043 9.40048C63.8897 9.21557 64 8.95569 64 8.69582V0.999519C64 0.734647 63.8947 0.479769 63.7043 0.294858H63.7243ZM13.7694 11.6144H24.6566V39.426H13.7694V11.6144ZM26.6617 11.6144H37.3885V39.426H26.6617V11.6144ZM39.3935 11.6144H50.5363V39.426H39.3935V11.6144ZM52.5414 11.0847L54.2155 9.69534H61.1429V48.5916L52.5414 40.0158V11.0847ZM2.00501 1.99904H62.015V7.6913H2.00501V1.99904ZM10.2807 9.69034L11.7644 11.0547V40.0058L3.06266 48.6016V9.69034H10.2757H10.2807Z" fill="white"/>
</svg>
